<?xml version="1.0" encoding="UTF-8" standalone="no"?>
<!-- Created with Inkscape (http://www.inkscape.org/) -->

<svg
   xmlns:dc="http://purl.org/dc/elements/1.1/"
   xmlns:cc="http://creativecommons.org/ns#"
   xmlns:rdf="http://www.w3.org/1999/02/22-rdf-syntax-ns#"
   xmlns:svg="http://www.w3.org/2000/svg"
   xmlns="http://www.w3.org/2000/svg"
   xmlns:sodipodi="http://sodipodi.sourceforge.net/DTD/sodipodi-0.dtd"
   xmlns:inkscape="http://www.inkscape.org/namespaces/inkscape"
   width="32"
   height="32"
   id="svg2"
   version="1.1"
   inkscape:version="0.48.4 r9939"
   sodipodi:docname="eye.inkscape.svg">
  <defs
     id="defs4" />
  <sodipodi:namedview
     id="base"
     pagecolor="#ffffff"
     bordercolor="#666666"
     borderopacity="1.0"
     inkscape:pageopacity="0.0"
     inkscape:pageshadow="2"
     inkscape:zoom="31.678384"
     inkscape:cx="10.060802"
     inkscape:cy="16.690883"
     inkscape:document-units="px"
     inkscape:current-layer="layer1"
     showgrid="true"
     inkscape:window-width="3840"
     inkscape:window-height="2050"
     inkscape:window-x="0"
     inkscape:window-y="55"
     inkscape:window-maximized="1"
     showguides="true"
     inkscape:guide-bbox="true">
    <inkscape:grid
       type="xygrid"
       id="grid2985"
       empspacing="4"
       visible="true"
       enabled="true"
       snapvisiblegridlinesonly="true"
       dotted="true" />
    <sodipodi:guide
       orientation="0,1"
       position="39,24"
       id="guide3092" />
  </sodipodi:namedview>
  <metadata
     id="metadata7">
    <rdf:RDF>
      <cc:Work
         rdf:about="">
        <dc:format>image/svg+xml</dc:format>
        <dc:type
           rdf:resource="http://purl.org/dc/dcmitype/StillImage" />
        <dc:title />
      </cc:Work>
    </rdf:RDF>
  </metadata>
  <g
     inkscape:label="Layer 1"
     inkscape:groupmode="layer"
     id="layer1"
     transform="translate(0,-1020.3622)">
    <path
       style="fill:#ececec;stroke:#666666;stroke-width:1.92357730999999998;stroke-miterlimit:4;stroke-opacity:1;stroke-dasharray:none"
       d="m 30.558404,1036.3622 c 0.0075,2.5309 -6.51802,7.2792 -14.558405,7.2792 -8.0403854,0 -14.5527552,-4.7483 -14.5584049,-7.2792 -0.00565,-2.5309 6.5180195,-7.2792 14.5584049,-7.2792 8.040385,0 14.552755,5.381 14.558405,7.2792 z"
       id="path3969"
       inkscape:connector-curvature="0"
       sodipodi:nodetypes="sssss" />
    <path
       sodipodi:type="arc"
       style="fill:#666666;fill-opacity:1;stroke:none"
       id="path3976"
       sodipodi:cx="24"
       sodipodi:cy="24"
       sodipodi:rx="8"
       sodipodi:ry="8"
       d="m 32,24 c 0,4.418278 -3.581722,8 -8,8 -4.418278,0 -8,-3.581722 -8,-8 0,-4.418278 3.581722,-8 8,-8 4.418278,0 8,3.581722 8,8 z"
       transform="matrix(0.6578664,0,0,0.6578664,0.21120497,1020.5734)" />
    <path
       transform="matrix(0.23368125,0,0,0.23368125,13.78513,1027.3604)"
       d="m 32,24 a 8,8 0 1 1 -16,0 8,8 0 1 1 16,0 z"
       sodipodi:ry="8"
       sodipodi:rx="8"
       sodipodi:cy="24"
       sodipodi:cx="24"
       id="path3754"
       style="fill:#ececec;fill-opacity:1;stroke:none"
       sodipodi:type="arc" />
    <path
       sodipodi:type="star"
       style="color:#000000;fill:#666666;fill-opacity:1;fill-rule:nonzero;stroke:none;stroke-width:2;marker:none;visibility:visible;display:inline;overflow:visible;enable-background:accumulate"
       id="path3756"
       sodipodi:sides="3"
       sodipodi:cx="25"
       sodipodi:cy="26"
       sodipodi:r1="1"
       sodipodi:r2="0.5"
       sodipodi:arg1="1.5707963"
       sodipodi:arg2="2.6179939"
       inkscape:flatsided="false"
       inkscape:rounded="0"
       inkscape:randomized="0"
       d="M 25,27 24.566987,26.25 24.133975,25.5 25,25.5 l 0.866025,0 -0.433012,0.75 z"
       transform="matrix(3.5167204,0,0,3.5167204,-59.403578,956.66585)"
       inkscape:transform-center-y="0.87919918" />
  </g>
</svg>
