<?xml version="1.0" encoding="UTF-8" standalone="no"?>
<!-- Created with Inkscape (http://www.inkscape.org/) -->

<svg
   xmlns:dc="http://purl.org/dc/elements/1.1/"
   xmlns:cc="http://creativecommons.org/ns#"
   xmlns:rdf="http://www.w3.org/1999/02/22-rdf-syntax-ns#"
   xmlns:svg="http://www.w3.org/2000/svg"
   xmlns="http://www.w3.org/2000/svg"
   xmlns:xlink="http://www.w3.org/1999/xlink"
   xmlns:sodipodi="http://sodipodi.sourceforge.net/DTD/sodipodi-0.dtd"
   xmlns:inkscape="http://www.inkscape.org/namespaces/inkscape"
   width="20"
   height="20"
   id="svg2985"
   version="1.1"
   inkscape:version="0.92.3 (2405546, 2018-03-11)"
   sodipodi:docname="icon.svg"
   inkscape:export-filename="/home/twm/yarrharr-icon.128.png"
   inkscape:export-xdpi="360"
   inkscape:export-ydpi="360">
  <title
     id="title3195">Yarrharr icon</title>
  <defs
     id="defs2987">
    <linearGradient
       id="linearGradient3917">
      <stop
         style="stop-color:#ffffff"
         offset="0"
         id="stop3919" />
      <stop
         id="stop3925"
         offset="0.60000002"
         style="stop-color:#f5f5f5" />
      <stop
         style="stop-color:#dedede"
         offset="1"
         id="stop3921" />
    </linearGradient>
    <linearGradient
       id="linearGradient3765">
      <stop
         style="stop-color:#f17e31"
         offset="0"
         id="stop3767" />
      <stop
         id="stop3773"
         offset="0.5"
         style="stop-color:#fb6500" />
      <stop
         style="stop-color:#da5200"
         offset="1"
         id="stop3769" />
    </linearGradient>
    <linearGradient
       inkscape:collect="always"
       xlink:href="#linearGradient3765"
       id="linearGradient3771"
       x1="8"
       y1="0"
       x2="8"
       y2="16"
       gradientUnits="userSpaceOnUse" />
    <linearGradient
       inkscape:collect="always"
       xlink:href="#linearGradient3765"
       id="linearGradient3777"
       gradientUnits="userSpaceOnUse"
       x1="8"
       y1="0"
       x2="8"
       y2="16"
       gradientTransform="translate(-23.741089)" />
    <linearGradient
       id="linearGradient3765-9">
      <stop
         style="stop-color:#f17e31"
         offset="0"
         id="stop3767-3" />
      <stop
         id="stop3773-2"
         offset="0.5"
         style="stop-color:#fb6500" />
      <stop
         style="stop-color:#da5200"
         offset="1"
         id="stop3769-6" />
    </linearGradient>
    <linearGradient
       y2="16"
       x2="8"
       y1="0"
       x1="8"
       gradientUnits="userSpaceOnUse"
       id="linearGradient3797"
       xlink:href="#linearGradient3765-9"
       inkscape:collect="always" />
    <linearGradient
       inkscape:collect="always"
       xlink:href="#linearGradient3765-4"
       id="linearGradient3777-2"
       gradientUnits="userSpaceOnUse"
       x1="8"
       y1="0"
       x2="8"
       y2="16"
       gradientTransform="translate(-23.741089)" />
    <linearGradient
       id="linearGradient3765-4">
      <stop
         style="stop-color:#f17e31"
         offset="0"
         id="stop3767-5" />
      <stop
         id="stop3773-3"
         offset="0.5"
         style="stop-color:#fb6500" />
      <stop
         style="stop-color:#da5200"
         offset="1"
         id="stop3769-9" />
    </linearGradient>
    <linearGradient
       y2="16"
       x2="8"
       y1="0"
       x1="8"
       gradientUnits="userSpaceOnUse"
       id="linearGradient3797-9"
       xlink:href="#linearGradient3765-4"
       inkscape:collect="always" />
    <linearGradient
       inkscape:collect="always"
       xlink:href="#linearGradient3765-4"
       id="linearGradient3879"
       gradientUnits="userSpaceOnUse"
       gradientTransform="translate(-23.741089)"
       x1="8"
       y1="0"
       x2="8"
       y2="16" />
    <linearGradient
       inkscape:collect="always"
       xlink:href="#linearGradient3765-93"
       id="linearGradient3777-1"
       gradientUnits="userSpaceOnUse"
       x1="8"
       y1="0"
       x2="8"
       y2="16"
       gradientTransform="translate(-21.731595,-5.616332)" />
    <linearGradient
       id="linearGradient3765-93">
      <stop
         style="stop-color:#f17e31"
         offset="0"
         id="stop3767-6" />
      <stop
         id="stop3773-7"
         offset="0.5"
         style="stop-color:#fb6500" />
      <stop
         style="stop-color:#da5200"
         offset="1"
         id="stop3769-8" />
    </linearGradient>
    <linearGradient
       y2="16"
       x2="8"
       y1="0"
       x1="8"
       gradientUnits="userSpaceOnUse"
       id="linearGradient3797-6"
       xlink:href="#linearGradient3765-93"
       inkscape:collect="always" />
    <linearGradient
       inkscape:collect="always"
       xlink:href="#linearGradient3765-93"
       id="linearGradient3903"
       gradientUnits="userSpaceOnUse"
       gradientTransform="translate(-20.741088,-6.9999999)"
       x1="8"
       y1="0"
       x2="8"
       y2="16" />
    <linearGradient
       inkscape:collect="always"
       xlink:href="#linearGradient3917"
       id="linearGradient3923"
       x1="34.976429"
       y1="-3.532191"
       x2="31.889496"
       y2="6.1791296"
       gradientUnits="userSpaceOnUse" />
    <linearGradient
       inkscape:collect="always"
       xlink:href="#linearGradient3917"
       id="linearGradient3021"
       gradientUnits="userSpaceOnUse"
       x1="34.976429"
       y1="-3.532191"
       x2="31.889496"
       y2="6.1791296" />
  </defs>
  <sodipodi:namedview
     id="base"
     pagecolor="white"
     bordercolor="#666666"
     borderopacity="1.0"
     inkscape:pageopacity="0"
     inkscape:pageshadow="2"
     inkscape:zoom="13.743438"
     inkscape:cx="-2.6870146"
     inkscape:cy="8.434124"
     inkscape:current-layer="layer1"
     showgrid="false"
     inkscape:grid-bbox="true"
     inkscape:document-units="px"
     inkscape:window-width="1920"
     inkscape:window-height="1781"
     inkscape:window-x="1437"
     inkscape:window-y="176"
     inkscape:window-maximized="0"
     inkscape:pagecheckerboard="false"
     objecttolerance="1"
     gridtolerance="1"
     guidetolerance="1">
    <inkscape:grid
       type="xygrid"
       id="grid2995"
       empspacing="5"
       visible="true"
       enabled="true"
       snapvisiblegridlinesonly="true"
       dotted="true" />
  </sodipodi:namedview>
  <metadata
     id="metadata2990">
    <rdf:RDF>
      <cc:Work
         rdf:about="">
        <dc:format>image/svg+xml</dc:format>
        <dc:type
           rdf:resource="http://purl.org/dc/dcmitype/StillImage" />
        <dc:title>Yarrharr icon</dc:title>
        <dc:rights>
          <cc:Agent>
            <dc:title />
          </cc:Agent>
        </dc:rights>
        <dc:creator>
          <cc:Agent>
            <dc:title>Tom Most</dc:title>
          </cc:Agent>
        </dc:creator>
        <cc:license
           rdf:resource="https://www.gnu.org/licenses/gpl.html" />
        <dc:subject>
          <rdf:Bag>
            <rdf:li>icon</rdf:li>
            <rdf:li>feed</rdf:li>
            <rdf:li>rss</rdf:li>
            <rdf:li>eyepatch</rdf:li>
          </rdf:Bag>
        </dc:subject>
      </cc:Work>
    </rdf:RDF>
  </metadata>
  <g
     id="layer1"
     inkscape:label="Layer 1"
     inkscape:groupmode="layer"
     transform="translate(0,4)">
    <g
       id="g1594"
       transform="matrix(1.0958566,0,0,1.0958566,-0.97077408,-0.59075315)"
       style="stroke-width:0.91252816">
      <g
         transform="matrix(1.214909,0,0,1.2148649,-0.40677688,-3.881377)"
         id="g1586"
         style="font-size:11.23999119px;font-family:Pacifico;-inkscape-font-specification:'Pacifico, Normal';letter-spacing:0px;word-spacing:0px;fill:white;stroke-width:0.75113547px"
         aria-label="Y">
        <path
           inkscape:connector-curvature="0"
           id="path1584"
           d="m 12.948035,8.4085411 q 0.06744,-0.02248 0.20232,-0.02248 0.38216,0 0.38216,0.4945596 0,0.2697598 -0.12364,0.4608396 -0.1124,0.1798399 -0.35968,0.2247999 -1.022839,0.1910798 -2.011958,0.4271196 l -0.03372,0.2697602 q -0.31472,2.214278 -1.2588791,3.270837 -0.9329193,1.067799 -2.3379182,1.067799 -0.9329193,0 -1.4499589,-0.460839 -0.5057996,-0.4496 -0.5057996,-1.15772 0,-1.180199 1.0565592,-2.101878 Q 7.5640796,9.9596599 9.7109179,9.2515404 L 9.9357177,7.6667017 Q 9.9806777,7.3969419 10.048118,6.9473422 9.5198381,8.3411011 8.6993187,9.0267406 7.8787993,9.71238 6.8672001,9.71238 5.9005609,9.71238 5.3947613,9.1279005 4.8889617,8.532181 4.8889617,7.5992617 q 0,-0.4158797 0.08992,-0.9104393 0.08992,-0.5057996 0.2809998,-1.3600389 0.1685999,-0.7755594 0.2472798,-1.236399 0.08992,-0.4608397 0.08992,-0.8205194 0,-0.5395196 -0.4158796,-0.5395196 -0.3259598,0 -0.7755594,0.3259598 Q 3.9672824,3.373025 3.4727228,4.0361845 3.3153629,4.2497443 3.1242831,4.2497443 q -0.1573599,0 -0.2809998,-0.1461199 -0.1123999,-0.1573598 -0.1123999,-0.3484397 0,-0.3484397 0.3147197,-0.7867994 1.1464791,-1.5735987 2.6863579,-1.5735987 0.6856395,0 1.0677992,0.4158796 0.3933997,0.4158797 0.3933997,1.2251591 0,0.5844795 -0.1123999,1.202679 Q 6.9796,4.8454639 6.7660402,5.7896231 6.6311603,6.3516227 6.5637204,6.7000624 q -0.06744,0.3371997 -0.06744,0.5619996 0,0.5732395 0.2023199,0.8205193 0.2023198,0.2472798 0.7081194,0.2472798 0.6069595,0 1.236399,-0.6631594 0.6406795,-0.6743995 1.1464791,-2.0344385 0.5170392,-1.3600389 0.7418392,-3.3270373 0.0562,-0.4945597 0.25852,-0.6968795 0.20232,-0.2135598 0.58448,-0.2135598 0.786799,0 0.786799,0.7867994 0,0.1348798 -0.01124,0.2135598 -0.23604,1.6747587 -0.43836,3.0235576 -0.1124,0.8092794 -0.247279,1.6635187 -0.12364,0.8542393 -0.24728,1.7309587 0.820519,-0.2247999 1.730958,-0.4046397 z M 9.542318,10.431739 q -2.7200778,0.94416 -2.7200778,2.292959 0,0.314719 0.1910798,0.517039 0.2023199,0.21356 0.5619996,0.21356 1.5623588,0 1.9557584,-2.944878 z" />
      </g>
      <g
         aria-label="Y"
         style="font-size:11.23999119px;font-family:Pacifico;-inkscape-font-specification:'Pacifico, Normal';letter-spacing:0px;word-spacing:0px;stroke-width:0.75113547px"
         id="use1578"
         transform="matrix(1.214909,0,0,1.2148649,0.90293907,-3.2265191)">
        <path
           d="m 12.948035,8.4085411 q 0.06744,-0.02248 0.20232,-0.02248 0.38216,0 0.38216,0.4945596 0,0.2697598 -0.12364,0.4608396 -0.1124,0.1798399 -0.35968,0.2247999 -1.022839,0.1910798 -2.011958,0.4271196 l -0.03372,0.2697602 q -0.31472,2.214278 -1.2588791,3.270837 -0.9329193,1.067799 -2.3379182,1.067799 -0.9329193,0 -1.4499589,-0.460839 -0.5057996,-0.4496 -0.5057996,-1.15772 0,-1.180199 1.0565592,-2.101878 Q 7.5640796,9.9596599 9.7109179,9.2515404 L 9.9357177,7.6667017 Q 9.9806777,7.3969419 10.048118,6.9473422 9.5198381,8.3411011 8.6993187,9.0267406 7.8787993,9.71238 6.8672001,9.71238 5.9005609,9.71238 5.3947613,9.1279005 4.8889617,8.532181 4.8889617,7.5992617 q 0,-0.4158797 0.08992,-0.9104393 0.08992,-0.5057996 0.2809998,-1.3600389 0.1685999,-0.7755594 0.2472798,-1.236399 0.08992,-0.4608397 0.08992,-0.8205194 0,-0.5395196 -0.4158796,-0.5395196 -0.3259598,0 -0.7755594,0.3259598 Q 3.9672824,3.373025 3.4727228,4.0361845 3.3153629,4.2497443 3.1242831,4.2497443 q -0.1573599,0 -0.2809998,-0.1461199 -0.1123999,-0.1573598 -0.1123999,-0.3484397 0,-0.3484397 0.3147197,-0.7867994 1.1464791,-1.5735987 2.6863579,-1.5735987 0.6856395,0 1.0677992,0.4158796 0.3933997,0.4158797 0.3933997,1.2251591 0,0.5844795 -0.1123999,1.202679 Q 6.9796,4.8454639 6.7660402,5.7896231 6.6311603,6.3516227 6.5637204,6.7000624 q -0.06744,0.3371997 -0.06744,0.5619996 0,0.5732395 0.2023199,0.8205193 0.2023198,0.2472798 0.7081194,0.2472798 0.6069595,0 1.236399,-0.6631594 0.6406795,-0.6743995 1.1464791,-2.0344385 0.5170392,-1.3600389 0.7418392,-3.3270373 0.0562,-0.4945597 0.25852,-0.6968795 0.20232,-0.2135598 0.58448,-0.2135598 0.786799,0 0.786799,0.7867994 0,0.1348798 -0.01124,0.2135598 -0.23604,1.6747587 -0.43836,3.0235576 -0.1124,0.8092794 -0.247279,1.6635187 -0.12364,0.8542393 -0.24728,1.7309587 0.820519,-0.2247999 1.730958,-0.4046397 z M 9.542318,10.431739 q -2.7200778,0.94416 -2.7200778,2.292959 0,0.314719 0.1910798,0.517039 0.2023199,0.21356 0.5619996,0.21356 1.5623588,0 1.9557584,-2.944878 z"
           id="path1580"
           inkscape:connector-curvature="0" />
      </g>
      <g
         transform="matrix(1.2148649,0,0,1.2148649,0.12108406,-3.7168312)"
         id="text856"
         style="font-size:11.23999119px;font-family:Pacifico;-inkscape-font-specification:'Pacifico, Normal';letter-spacing:0px;word-spacing:0px;fill:#ff7108;stroke-width:0.75113547px"
         aria-label="Y">
        <path
           inkscape:connector-curvature="0"
           id="path858"
           d="m 12.948035,8.4085411 q 0.06744,-0.02248 0.20232,-0.02248 0.38216,0 0.38216,0.4945596 0,0.2697598 -0.12364,0.4608396 -0.1124,0.1798399 -0.35968,0.2247999 -1.022839,0.1910798 -2.011958,0.4271196 l -0.03372,0.2697602 q -0.31472,2.214278 -1.2588791,3.270837 -0.9329193,1.067799 -2.3379182,1.067799 -0.9329193,0 -1.4499589,-0.460839 -0.5057996,-0.4496 -0.5057996,-1.15772 0,-1.180199 1.0565592,-2.101878 Q 7.5640796,9.9596599 9.7109179,9.2515404 L 9.9357177,7.6667017 Q 9.9806777,7.3969419 10.048118,6.9473422 9.5198381,8.3411011 8.6993187,9.0267406 7.8787993,9.71238 6.8672001,9.71238 5.9005609,9.71238 5.3947613,9.1279005 4.8889617,8.532181 4.8889617,7.5992617 q 0,-0.4158797 0.08992,-0.9104393 0.08992,-0.5057996 0.2809998,-1.3600389 0.1685999,-0.7755594 0.2472798,-1.236399 0.08992,-0.4608397 0.08992,-0.8205194 0,-0.5395196 -0.4158796,-0.5395196 -0.3259598,0 -0.7755594,0.3259598 Q 3.9672824,3.373025 3.4727228,4.0361845 3.3153629,4.2497443 3.1242831,4.2497443 q -0.1573599,0 -0.2809998,-0.1461199 -0.1123999,-0.1573598 -0.1123999,-0.3484397 0,-0.3484397 0.3147197,-0.7867994 1.1464791,-1.5735987 2.6863579,-1.5735987 0.6856395,0 1.0677992,0.4158796 0.3933997,0.4158797 0.3933997,1.2251591 0,0.5844795 -0.1123999,1.202679 Q 6.9796,4.8454639 6.7660402,5.7896231 6.6311603,6.3516227 6.5637204,6.7000624 q -0.06744,0.3371997 -0.06744,0.5619996 0,0.5732395 0.2023199,0.8205193 0.2023198,0.2472798 0.7081194,0.2472798 0.6069595,0 1.236399,-0.6631594 0.6406795,-0.6743995 1.1464791,-2.0344385 0.5170392,-1.3600389 0.7418392,-3.3270373 0.0562,-0.4945597 0.25852,-0.6968795 0.20232,-0.2135598 0.58448,-0.2135598 0.786799,0 0.786799,0.7867994 0,0.1348798 -0.01124,0.2135598 -0.23604,1.6747587 -0.43836,3.0235576 -0.1124,0.8092794 -0.247279,1.6635187 -0.12364,0.8542393 -0.24728,1.7309587 0.820519,-0.2247999 1.730958,-0.4046397 z M 9.542318,10.431739 q -2.7200778,0.94416 -2.7200778,2.292959 0,0.314719 0.1910798,0.517039 0.2023199,0.21356 0.5619996,0.21356 1.5623588,0 1.9557584,-2.944878 z" />
      </g>
    </g>
  </g>
</svg>
