<?xml version="1.0" encoding="UTF-8" standalone="no"?>
<!-- Created with Inkscape (http://www.inkscape.org/) -->

<svg
   xmlns:dc="http://purl.org/dc/elements/1.1/"
   xmlns:cc="http://creativecommons.org/ns#"
   xmlns:rdf="http://www.w3.org/1999/02/22-rdf-syntax-ns#"
   xmlns:svg="http://www.w3.org/2000/svg"
   xmlns="http://www.w3.org/2000/svg"
   xmlns:sodipodi="http://sodipodi.sourceforge.net/DTD/sodipodi-0.dtd"
   xmlns:inkscape="http://www.inkscape.org/namespaces/inkscape"
   width="48"
   height="48"
   id="svg2"
   version="1.1"
   inkscape:version="0.48.4 r9939"
   sodipodi:docname="template.inkscape.svg">
  <defs
     id="defs4" />
  <sodipodi:namedview
     id="base"
     pagecolor="#ffffff"
     bordercolor="#666666"
     borderopacity="1.0"
     inkscape:pageopacity="0.0"
     inkscape:pageshadow="2"
     inkscape:zoom="31.678384"
     inkscape:cx="23.11911"
     inkscape:cy="23.635682"
     inkscape:document-units="px"
     inkscape:current-layer="layer1"
     showgrid="true"
     inkscape:window-width="1919"
     inkscape:window-height="2050"
     inkscape:window-x="1920"
     inkscape:window-y="55"
     inkscape:window-maximized="0">
    <inkscape:grid
       type="xygrid"
       id="grid2985"
       empspacing="4"
       visible="true"
       enabled="true"
       snapvisiblegridlinesonly="true"
       dotted="true" />
  </sodipodi:namedview>
  <metadata
     id="metadata7">
    <rdf:RDF>
      <cc:Work
         rdf:about="">
        <dc:format>image/svg+xml</dc:format>
        <dc:type
           rdf:resource="http://purl.org/dc/dcmitype/StillImage" />
        <dc:title></dc:title>
      </cc:Work>
    </rdf:RDF>
  </metadata>
  <g
     inkscape:label="Layer 1"
     inkscape:groupmode="layer"
     id="layer1"
     transform="translate(0,-1004.3622)">
    <g
       style="font-size:98.30242157px;font-style:normal;font-variant:normal;font-weight:normal;font-stretch:normal;text-align:start;line-height:125%;letter-spacing:0px;word-spacing:0px;writing-mode:lr-tb;text-anchor:start;color:#000000;fill:#a3a3a3;fill-opacity:1;fill-rule:nonzero;stroke:none;stroke-width:8;marker:none;visibility:visible;display:inline;overflow:visible;enable-background:accumulate;font-family:Ubuntu Mono;-inkscape-font-specification:Ubuntu Mono"
       id="text3021">
      <path
         d="m 14.366363,1035.096 c 1.310682,0 2.523078,-0.5898 3.637189,-1.7695 1.17961,-1.2451 2.293703,-2.9163 3.342283,-5.0134 -0.983046,-2.0316 -2.097139,-3.6372 -3.342283,-4.8168 -1.179646,-1.2452 -2.392041,-1.8677 -3.637189,-1.8678 -1.507318,10e-5 -2.818015,0.5571 -3.932097,1.6712 -1.0485693,1.1141 -1.5728484,2.7852 -1.5728389,5.0134 -9.5e-6,2.2937 0.5242696,3.9976 1.5728389,5.1117 1.114082,1.1141 2.424779,1.6712 3.932097,1.6712 m 19.758786,5.7015 c -2.35929,0 -4.423639,-0.6553 -6.193052,-1.9661 -1.703936,-1.3106 -3.014633,-2.7196 -3.932097,-4.227 -0.983048,1.5074 -2.326513,2.9164 -4.030399,4.227 -1.638393,1.3108 -3.637207,1.9661 -5.996448,1.9661 -1.048573,0 -2.260968,-0.1966 -3.63719,-0.5898 -1.3107082,-0.3932 -2.5558709,-1.0486 -3.7354916,-1.9661 -1.1796351,-0.983 -2.1954257,-2.2609 -3.0473751,-3.8338 -0.7864227,-1.6383 -1.179632,-3.6699 -1.179629,-6.0947 -3e-6,-2.4248 0.3932063,-4.4236 1.179629,-5.9965 0.8519494,-1.5728 1.86774,-2.8179 3.0473751,-3.7355 1.1796207,-0.9829 2.4247834,-1.6711 3.7354916,-2.0643 1.376222,-0.3932 2.588617,-0.5898 3.63719,-0.5898 2.359241,0 4.358055,0.6881 5.996448,2.0643 1.703886,1.3108 3.047351,2.7198 4.030399,4.227 0.982999,-1.5072 2.326464,-2.9162 4.030399,-4.227 1.703879,-1.3762 3.73546,-2.0643 6.09475,-2.0643 1.048524,0 2.228152,0.1966 3.538888,0.5898 1.376194,0.3932 2.654124,1.0814 3.833794,2.0643 1.179586,0.9176 2.162609,2.1627 2.949073,3.7355 0.786373,1.5729 1.179583,3.5717 1.179629,5.9965 -4.6e-5,2.4248 -0.393256,4.4564 -1.179629,6.0947 -0.786464,1.5729 -1.769487,2.8508 -2.949073,3.8338 -1.17967,0.9175 -2.4576,1.5729 -3.833794,1.9661 -1.310736,0.3932 -2.490364,0.5898 -3.538888,0.5898 m -0.294907,-5.7015 c 1.441733,0 2.686896,-0.5571 3.735492,-1.6712 1.114055,-1.1141 1.671102,-2.818 1.671141,-5.1117 -3.9e-5,-2.2282 -0.557086,-3.8993 -1.671141,-5.0134 -1.048596,-1.1141 -2.293759,-1.6711 -3.735492,-1.6712 -1.310732,10e-5 -2.555895,0.5899 -3.735492,1.7695 -1.179658,1.1796 -2.293751,2.818 -3.342282,4.9151 0.982996,2.0971 2.064321,3.7683 3.24398,5.0134 1.245132,1.1797 2.523062,1.7695 3.833794,1.7695"
         style="marker:none"
         id="path3050" />
    </g>
  </g>
</svg>
