<?xml version="1.0" encoding="UTF-8" standalone="no"?>
<!-- Created with Inkscape (http://www.inkscape.org/) -->

<svg
   xmlns:dc="http://purl.org/dc/elements/1.1/"
   xmlns:cc="http://creativecommons.org/ns#"
   xmlns:rdf="http://www.w3.org/1999/02/22-rdf-syntax-ns#"
   xmlns:svg="http://www.w3.org/2000/svg"
   xmlns="http://www.w3.org/2000/svg"
   xmlns:sodipodi="http://sodipodi.sourceforge.net/DTD/sodipodi-0.dtd"
   xmlns:inkscape="http://www.inkscape.org/namespaces/inkscape"
   viewBox="0 0 48 48"
   width="48"
   height="48"
   id="svg2"
   version="1.1"
   inkscape:version="0.91 r13725"
   sodipodi:docname="heart-empty.inkscape.svg">
  <defs
     id="defs4" />
  <sodipodi:namedview
     id="base"
     pagecolor="#ffffff"
     bordercolor="#666666"
     borderopacity="1.0"
     inkscape:pageopacity="0.0"
     inkscape:pageshadow="2"
     inkscape:zoom="19.193"
     inkscape:cx="25.025913"
     inkscape:cy="34.839986"
     inkscape:document-units="px"
     inkscape:current-layer="layer1"
     showgrid="true"
     inkscape:window-width="1919"
     inkscape:window-height="2032"
     inkscape:window-x="1920"
     inkscape:window-y="73"
     inkscape:window-maximized="0">
    <inkscape:grid
       type="xygrid"
       id="grid2985"
       empspacing="4"
       visible="true"
       enabled="true"
       snapvisiblegridlinesonly="true"
       dotted="true" />
  </sodipodi:namedview>
  <metadata
     id="metadata7">
    <rdf:RDF>
      <cc:Work
         rdf:about="">
        <dc:format>image/svg+xml</dc:format>
        <dc:type
           rdf:resource="http://purl.org/dc/dcmitype/StillImage" />
        <dc:title />
      </cc:Work>
    </rdf:RDF>
  </metadata>
  <g
     inkscape:label="Layer 1"
     inkscape:groupmode="layer"
     id="layer1"
     transform="translate(0,-1004.3622)">
    <path
       style="color:#000000;fill:#9b1559;fill-opacity:1;fill-rule:nonzero;stroke:none;stroke-width:7.59999990000000025;marker:none;visibility:visible;display:inline;overflow:visible;enable-background:accumulate"
       d="M 13.640625 3.8535156 C 3.5822359 3.8535156 3.28125 15.068359 3.28125 15.068359 C 3.2453111 26.963959 20.941345 44.146484 24 44.146484 C 27.058655 44.146484 44.75469 26.963959 44.71875 15.068359 C 44.71875 15.068359 44.369848 3.8535156 34.359375 3.8535156 C 24.348903 3.8535156 24 15.068359 24 15.068359 C 24 15.068359 23.699014 3.8535156 13.640625 3.8535156 z M 33.539062 5.7949219 C 38.50572 5.4184967 43.238841 10.199022 42.707031 15.560547 C 40.948253 26.467147 32.758618 35.447031 24.257812 41.957031 C 16.962574 37.744531 11.271078 30.120041 7.2792969 22.556641 C 3.5517374 16.847141 5.1444427 6.1849281 13.224609 5.8613281 C 22.247728 5.5244281 21.061485 14.598844 23.990234 19.777344 C 26.691617 15.795844 25.571256 9.7485469 30.125 6.9355469 C 31.234171 6.2431656 32.392911 5.8817892 33.539062 5.7949219 z "
       transform="translate(0,1004.3622)"
       id="rect3766" />
  </g>
</svg>
