<?xml version="1.0" encoding="UTF-8" standalone="no"?>
<!-- Created with Inkscape (http://www.inkscape.org/) -->

<svg
   xmlns:dc="http://purl.org/dc/elements/1.1/"
   xmlns:cc="http://creativecommons.org/ns#"
   xmlns:rdf="http://www.w3.org/1999/02/22-rdf-syntax-ns#"
   xmlns:svg="http://www.w3.org/2000/svg"
   xmlns="http://www.w3.org/2000/svg"
   xmlns:sodipodi="http://sodipodi.sourceforge.net/DTD/sodipodi-0.dtd"
   xmlns:inkscape="http://www.inkscape.org/namespaces/inkscape"
   viewBox="0 0 48 48"
   width="48"
   height="48"
   id="svg2"
   version="1.1"
   inkscape:version="0.91 r13725"
   sodipodi:docname="narrow.svg">
  <defs
     id="defs4" />
  <sodipodi:namedview
     id="base"
     pagecolor="#ffffff"
     bordercolor="#666666"
     borderopacity="1.0"
     inkscape:pageopacity="0.0"
     inkscape:pageshadow="2"
     inkscape:zoom="24.227325"
     inkscape:cx="21.982437"
     inkscape:cy="17.103991"
     inkscape:document-units="px"
     inkscape:current-layer="layer1"
     showgrid="true"
     inkscape:window-width="1920"
     inkscape:window-height="2050"
     inkscape:window-x="1021"
     inkscape:window-y="71"
     inkscape:window-maximized="0">
    <inkscape:grid
       type="xygrid"
       id="grid2985"
       empspacing="4"
       visible="true"
       enabled="true"
       snapvisiblegridlinesonly="true"
       dotted="true" />
  </sodipodi:namedview>
  <metadata
     id="metadata7">
    <rdf:RDF>
      <cc:Work
         rdf:about="">
        <dc:format>image/svg+xml</dc:format>
        <dc:type
           rdf:resource="http://purl.org/dc/dcmitype/StillImage" />
        <dc:title></dc:title>
      </cc:Work>
    </rdf:RDF>
  </metadata>
  <g
     inkscape:label="Layer 1"
     inkscape:groupmode="layer"
     id="layer1"
     transform="translate(0,-1004.3622)">
    <path
       id="path3780"
       d="m 35.852074,1017.7299 -5.300537,5.3047 -5.300537,5.3276 5.300537,5.3276 5.300537,5.3047 c 1.349142,-1.358 0.455361,-2.5067 -0.597064,-3.5595 l -1.746767,-1.7452 -5.300537,-5.3276 5.300537,-5.3276 1.746767,-1.7452 c 1.524904,-1.4357 1.43809,-2.5105 0.597064,-3.5595 z"
       style="color:#000000;fill:#666666;stroke-width:2.90476203"
       inkscape:connector-curvature="0"
       sodipodi:nodetypes="ccccccccccc" />
    <rect
       style="color:#000000;solid-opacity:1;fill:#666666;stroke-width:7.5999999;stroke-linecap:round;stroke-linejoin:round"
       id="rect4135"
       width="32"
       height="2"
       x="1012.3622"
       y="-7"
       ry="0.5000174"
       rx="0.5000174"
       transform="matrix(0,1,-1,0,0,0)" />
    <rect
       transform="matrix(0,1,-1,0,0,0)"
       rx="0.5000174"
       ry="0.5000174"
       y="-43"
       x="1012.3622"
       height="2"
       width="32"
       id="rect4757"
       style="color:#000000;solid-opacity:1;fill:#666666;stroke-width:7.5999999;stroke-linecap:round;stroke-linejoin:round" />
    <path
       sodipodi:nodetypes="ccccccccccc"
       inkscape:connector-curvature="0"
       style="color:#000000;fill:#666666;stroke-width:2.90476203"
       d="m 12.182279,1017.7299 5.300537,5.3047 5.300537,5.3276 -5.300537,5.3276 -5.300537,5.3047 c -1.349143,-1.358 -0.455361,-2.5067 0.597064,-3.5595 l 1.746767,-1.7452 5.300536,-5.3276 -5.300536,-5.3276 -1.746767,-1.7452 c -1.524905,-1.4357 -1.438091,-2.5105 -0.597064,-3.5595 z"
       id="path4761" />
  </g>
</svg>
