<?xml version="1.0" encoding="UTF-8" standalone="no"?>
<!-- Created with Inkscape (http://www.inkscape.org/) -->

<svg
   width="20"
   height="20"
   id="svg2985"
   version="1.1"
   inkscape:version="1.2.2 (b0a8486541, 2022-12-01)"
   sodipodi:docname="icon.svg"
   inkscape:export-filename="/home/twm/yarrharr-icon.128.png"
   inkscape:export-xdpi="360"
   inkscape:export-ydpi="360"
   xmlns:inkscape="http://www.inkscape.org/namespaces/inkscape"
   xmlns:sodipodi="http://sodipodi.sourceforge.net/DTD/sodipodi-0.dtd"
   xmlns:xlink="http://www.w3.org/1999/xlink"
   xmlns="http://www.w3.org/2000/svg"
   xmlns:svg="http://www.w3.org/2000/svg"
   xmlns:rdf="http://www.w3.org/1999/02/22-rdf-syntax-ns#"
   xmlns:cc="http://creativecommons.org/ns#"
   xmlns:dc="http://purl.org/dc/elements/1.1/">
  <title
     id="title3195">Yarrharr icon</title>
  <defs
     id="defs2987">
    <linearGradient
       id="linearGradient3917">
      <stop
         style="stop-color:#ffffff"
         offset="0"
         id="stop3919" />
      <stop
         id="stop3925"
         offset="0.60000002"
         style="stop-color:#f5f5f5" />
      <stop
         style="stop-color:#dedede"
         offset="1"
         id="stop3921" />
    </linearGradient>
    <linearGradient
       id="linearGradient3765">
      <stop
         style="stop-color:#f17e31"
         offset="0"
         id="stop3767" />
      <stop
         id="stop3773"
         offset="0.5"
         style="stop-color:#fb6500" />
      <stop
         style="stop-color:#da5200"
         offset="1"
         id="stop3769" />
    </linearGradient>
    <linearGradient
       inkscape:collect="always"
       xlink:href="#linearGradient3765"
       id="linearGradient3771"
       x1="8"
       y1="0"
       x2="8"
       y2="16"
       gradientUnits="userSpaceOnUse" />
    <linearGradient
       inkscape:collect="always"
       xlink:href="#linearGradient3765"
       id="linearGradient3777"
       gradientUnits="userSpaceOnUse"
       x1="8"
       y1="0"
       x2="8"
       y2="16"
       gradientTransform="translate(-23.741089)" />
    <linearGradient
       id="linearGradient3765-9">
      <stop
         style="stop-color:#f17e31"
         offset="0"
         id="stop3767-3" />
      <stop
         id="stop3773-2"
         offset="0.5"
         style="stop-color:#fb6500" />
      <stop
         style="stop-color:#da5200"
         offset="1"
         id="stop3769-6" />
    </linearGradient>
    <linearGradient
       y2="16"
       x2="8"
       y1="0"
       x1="8"
       gradientUnits="userSpaceOnUse"
       id="linearGradient3797"
       xlink:href="#linearGradient3765-9"
       inkscape:collect="always" />
    <linearGradient
       inkscape:collect="always"
       xlink:href="#linearGradient3765-4"
       id="linearGradient3777-2"
       gradientUnits="userSpaceOnUse"
       x1="8"
       y1="0"
       x2="8"
       y2="16"
       gradientTransform="translate(-23.741089)" />
    <linearGradient
       id="linearGradient3765-4">
      <stop
         style="stop-color:#f17e31"
         offset="0"
         id="stop3767-5" />
      <stop
         id="stop3773-3"
         offset="0.5"
         style="stop-color:#fb6500" />
      <stop
         style="stop-color:#da5200"
         offset="1"
         id="stop3769-9" />
    </linearGradient>
    <linearGradient
       y2="16"
       x2="8"
       y1="0"
       x1="8"
       gradientUnits="userSpaceOnUse"
       id="linearGradient3797-9"
       xlink:href="#linearGradient3765-4"
       inkscape:collect="always" />
    <linearGradient
       inkscape:collect="always"
       xlink:href="#linearGradient3765-4"
       id="linearGradient3879"
       gradientUnits="userSpaceOnUse"
       gradientTransform="translate(-23.741089)"
       x1="8"
       y1="0"
       x2="8"
       y2="16" />
    <linearGradient
       inkscape:collect="always"
       xlink:href="#linearGradient3765-93"
       id="linearGradient3777-1"
       gradientUnits="userSpaceOnUse"
       x1="8"
       y1="0"
       x2="8"
       y2="16"
       gradientTransform="translate(-21.731595,-5.616332)" />
    <linearGradient
       id="linearGradient3765-93">
      <stop
         style="stop-color:#f17e31"
         offset="0"
         id="stop3767-6" />
      <stop
         id="stop3773-7"
         offset="0.5"
         style="stop-color:#fb6500" />
      <stop
         style="stop-color:#da5200"
         offset="1"
         id="stop3769-8" />
    </linearGradient>
    <linearGradient
       y2="16"
       x2="8"
       y1="0"
       x1="8"
       gradientUnits="userSpaceOnUse"
       id="linearGradient3797-6"
       xlink:href="#linearGradient3765-93"
       inkscape:collect="always" />
    <linearGradient
       inkscape:collect="always"
       xlink:href="#linearGradient3765-93"
       id="linearGradient3903"
       gradientUnits="userSpaceOnUse"
       gradientTransform="translate(-20.741088,-6.9999999)"
       x1="8"
       y1="0"
       x2="8"
       y2="16" />
    <linearGradient
       inkscape:collect="always"
       xlink:href="#linearGradient3917"
       id="linearGradient3923"
       x1="34.976429"
       y1="-3.532191"
       x2="31.889496"
       y2="6.1791296"
       gradientUnits="userSpaceOnUse" />
    <linearGradient
       inkscape:collect="always"
       xlink:href="#linearGradient3917"
       id="linearGradient3021"
       gradientUnits="userSpaceOnUse"
       x1="34.976429"
       y1="-3.532191"
       x2="31.889496"
       y2="6.1791296" />
  </defs>
  <sodipodi:namedview
     id="base"
     pagecolor="white"
     bordercolor="#666666"
     borderopacity="1.0"
     inkscape:pageopacity="0"
     inkscape:pageshadow="2"
     inkscape:zoom="27.486876"
     inkscape:cx="0.27285749"
     inkscape:cy="11.64192"
     inkscape:current-layer="layer1"
     showgrid="false"
     inkscape:grid-bbox="true"
     inkscape:document-units="px"
     inkscape:window-width="1920"
     inkscape:window-height="1011"
     inkscape:window-x="0"
     inkscape:window-y="32"
     inkscape:window-maximized="1"
     inkscape:pagecheckerboard="true"
     objecttolerance="1"
     gridtolerance="1"
     guidetolerance="1"
     inkscape:showpageshadow="0"
     inkscape:deskcolor="#d1d1d1">
    <inkscape:grid
       type="xygrid"
       id="grid2995"
       empspacing="5"
       visible="true"
       enabled="true"
       snapvisiblegridlinesonly="true"
       dotted="true" />
  </sodipodi:namedview>
  <metadata
     id="metadata2990">
    <rdf:RDF>
      <cc:Work
         rdf:about="">
        <dc:format>image/svg+xml</dc:format>
        <dc:type
           rdf:resource="http://purl.org/dc/dcmitype/StillImage" />
        <dc:title>Yarrharr icon</dc:title>
        <dc:rights>
          <cc:Agent>
            <dc:title />
          </cc:Agent>
        </dc:rights>
        <dc:creator>
          <cc:Agent>
            <dc:title>Tom Most</dc:title>
          </cc:Agent>
        </dc:creator>
        <cc:license
           rdf:resource="https://www.gnu.org/licenses/gpl.html" />
        <dc:subject>
          <rdf:Bag>
            <rdf:li>icon</rdf:li>
            <rdf:li>feed</rdf:li>
            <rdf:li>rss</rdf:li>
            <rdf:li>eyepatch</rdf:li>
          </rdf:Bag>
        </dc:subject>
      </cc:Work>
    </rdf:RDF>
  </metadata>
  <g
     id="layer1"
     inkscape:label="Layer 1"
     inkscape:groupmode="layer"
     transform="translate(0,4)">
    <g
       aria-label="Y"
       id="text978"
       style="font-size:22.2298px;line-height:5;font-family:Montez;-inkscape-font-specification:'Montez, Normal';text-align:center;letter-spacing:0px;word-spacing:0px;text-anchor:middle;vector-effect:none;fill:white;stroke-width:1.09585px;stop-color:black">
      <path
         d="m 15.438087,-1.9924616 q 0,0.4233214 -0.141107,0.8792059 -0.130252,0.44503018 -0.303923,0.81407959 -0.455884,1.05287623 -1.042022,2.02977171 -0.575283,0.9660411 -1.237401,1.9103734 -0.17367,0.2387966 -0.466739,0.5752829 -0.282214,0.3256318 -0.6187,0.7055356 -0.336486,0.3799038 -0.683827,0.7923708 -0.34734,0.4124669 -0.651263,0.8249339 Q 9.9891815,6.9407048 9.7612392,7.3206086 9.5441513,7.689658 9.4681706,7.993581 q -0.075981,0.2713599 -0.075981,0.5644285 0,0.2930687 0,0.5427197 0,0.2605055 0.010854,0.7489532 0.021709,0.4775936 0.043418,1.0745846 0.032563,0.586138 0.086835,1.226547 0.054272,0.640409 0.1193984,1.215692 0.075981,0.575283 0.1736703,1.020313 0.1085439,0.455885 0.2387964,0.672973 0.02171,0.04342 0.04342,0.08684 0.02171,0.04342 0.02171,0.09769 0,0.07598 -0.05427,0.119399 -0.04342,0.04342 -0.1085443,0.06513 -0.065126,0.02171 -0.1302527,0.02171 -0.065126,0.01085 -0.108544,0.01085 -0.2387966,0 -0.4667389,-0.04342 Q 9.0448492,15.374569 8.8386157,15.309443 8.5129839,15.200899 8.3284592,14.983811 8.1439345,14.766723 8.0462449,14.484509 7.9485554,14.213149 7.9268466,13.898371 7.9051378,13.594448 7.9051378,13.30138 q 0,-0.553574 0.043418,-1.215692 Q 7.991973,11.42357 8.0570993,10.750597 8.1330801,10.06677 8.2307696,9.4046523 8.3284592,8.7425342 8.4370031,8.1672513 8.350168,7.9718722 8.1113713,7.6679492 7.883429,7.3531718 7.5903604,7.02754 7.3081461,6.6910537 7.0367863,6.3871307 6.7654264,6.0832077 6.6134649,5.898683 6.092454,5.2691281 5.5605887,4.5418837 5.0395778,3.8146393 4.6162564,3.0222685 4.192935,2.2190433 3.9215752,1.3724006 3.6610697,0.52575784 3.6610697,-0.34259369 q 0,-0.64040926 0.2062335,-1.21569211 0.2170879,-0.5752829 0.6838268,-0.9877499 0.09769,-0.086835 0.2496511,-0.2062335 0.1519615,-0.1302527 0.3147774,-0.2387967 0.1736703,-0.1193983 0.3473406,-0.1953791 0.1736703,-0.086835 0.3147775,-0.086835 0.2170878,0 0.2170878,0.2387967 0,0.032563 0,0.075981 0,0.043418 -0.021709,0.086835 -0.1193984,0.5210109 -0.1845247,1.0311674 -0.065126,0.5101565 -0.065126,1.05287625 0,1.23740093 0.2822142,2.30113155 Q 6.2878331,2.5772383 6.754572,3.5649882 7.221311,4.5527381 7.8183027,5.5079248 8.4152943,6.4522571 9.0448492,7.4400069 9.4464618,6.8321609 9.9132007,6.148334 10.37994,5.4645072 10.846679,4.7372628 q 0.466739,-0.7272444 0.900914,-1.487052 0.445031,-0.770662 0.781517,-1.541324 0.336486,-0.78151637 0.531865,-1.55217836 0.206234,-0.78151638 0.206234,-1.54132394 0,-0.2822143 -0.04342,-0.5427197 -0.03256,-0.2605055 -0.119398,-0.5101566 v -0.086835 q 0,-0.1628159 0.130252,-0.2605055 0.141107,-0.097689 0.314778,-0.1519615 0.184524,-0.054272 0.369049,-0.075981 0.195379,-0.021709 0.303923,-0.021709 0.27136,0 0.488448,0.054272 0.227942,0.043418 0.390758,0.1628159 0.162816,0.1193984 0.249651,0.3256319 0.08683,0.1953791 0.08683,0.4993021 z"
         style="vector-effect:none;stop-color:black;stop-opacity:1"
         id="path5733" />
    </g>
    <g
       aria-label="Y"
       id="text386"
       style="font-size:22.2298px;line-height:5;font-family:Montez;-inkscape-font-specification:'Montez, Normal';text-align:center;letter-spacing:0px;word-spacing:0px;text-anchor:middle;stroke-width:11.0647">
      <path
         d="m 16.285645,-1.881122 q 0,0.4233213 -0.141107,0.8792059 -0.130252,0.44503015 -0.303923,0.81407956 -0.455884,1.05287623 -1.042022,2.02977174 -0.575282,0.966041 -1.237401,1.9103733 -0.17367,0.2387967 -0.466738,0.5752829 -0.282215,0.3256319 -0.618701,0.7055357 -0.336486,0.3799037 -0.683827,0.7923707 -0.34734,0.412467 -0.651263,0.824934 -0.303923,0.4016126 -0.531866,0.7815164 -0.217088,0.3690494 -0.293068,0.6729724 -0.07598,0.2713599 -0.07598,0.5644285 0,0.2930686 0,0.5427197 0,0.2605055 0.01085,0.7489532 0.02171,0.477593 0.04342,1.074585 0.03256,0.586137 0.08684,1.226547 0.05427,0.640409 0.119398,1.215692 0.07598,0.575283 0.173671,1.020313 0.108544,0.455884 0.238796,0.672972 0.02171,0.04342 0.04342,0.08683 0.02171,0.04342 0.02171,0.09769 0,0.07598 -0.05427,0.119398 -0.04342,0.04342 -0.108544,0.06513 -0.06513,0.02171 -0.130253,0.02171 -0.06513,0.01085 -0.108544,0.01085 -0.238797,0 -0.466739,-0.04342 Q 9.8924072,15.485909 9.6861737,15.420782 9.3605419,15.312238 9.1760172,15.09515 8.9914925,14.878063 8.893803,14.595848 q -0.09769,-0.27136 -0.1193984,-0.586137 -0.021709,-0.303923 -0.021709,-0.596992 0,-0.553574 0.043418,-1.215692 0.043418,-0.662118 0.108544,-1.33509 Q 8.9806381,10.17811 9.0783277,9.5159918 9.1760172,8.8538738 9.2845612,8.2785909 9.197726,8.0832118 8.9589293,7.7792888 8.7309871,7.4645113 8.4379184,7.1388795 8.1557042,6.8023933 7.8843443,6.4984703 7.6129845,6.1945472 7.4610229,6.0100225 6.940012,5.3804677 6.4081467,4.6532233 5.8871358,3.9259788 5.4638144,3.1336081 5.040493,2.3303829 4.7691332,1.4837402 4.5086277,0.63709741 4.5086277,-0.23125412 q 0,-0.64040926 0.2062335,-1.21569218 0.2170879,-0.5752829 0.6838268,-0.9877498 0.09769,-0.086835 0.2496511,-0.2062335 0.1519615,-0.1302528 0.3147774,-0.2387967 0.1736703,-0.1193983 0.3473406,-0.1953791 0.1736704,-0.086835 0.3147775,-0.086835 0.2170879,0 0.2170879,0.2387966 0,0.032563 0,0.075981 0,0.043418 -0.021709,0.086835 -0.1193984,0.521011 -0.1845247,1.0311675 -0.065126,0.5101565 -0.065126,1.05287622 0,1.23740093 0.2822143,2.30113158 0.2822142,1.0637306 0.7489532,2.0514805 0.4667389,0.9877499 1.0637306,1.9429365 0.5969917,0.9443323 1.2265465,1.9320822 0.4016128,-0.6078461 0.8683518,-1.2916729 0.466739,-0.6838268 0.933478,-1.4110712 0.466739,-0.7272445 0.900914,-1.487052 0.445031,-0.770662 0.781517,-1.541324 0.336486,-0.7815164 0.531865,-1.55217839 0.206234,-0.78151638 0.206234,-1.54132401 0,-0.2822142 -0.04342,-0.5427197 -0.03256,-0.2605054 -0.119398,-0.5101565 v -0.086835 q 0,-0.1628159 0.130252,-0.2605054 0.141108,-0.09769 0.314778,-0.1519615 0.184525,-0.054272 0.369049,-0.075981 0.195379,-0.021709 0.303923,-0.021709 0.27136,0 0.488448,0.054272 0.227942,0.043418 0.390758,0.1628159 0.162816,0.1193983 0.249651,0.3256318 0.08683,0.1953791 0.08683,0.4993022 z"
         id="path5730" />
    </g>
    <g
       aria-label="Y"
       id="text382"
       style="font-size:22.2298px;line-height:5;font-family:Montez;-inkscape-font-specification:'Montez, Normal';text-align:center;letter-spacing:0px;word-spacing:0px;text-anchor:middle;vector-effect:none;fill:#ff7108;stroke-width:1.09585px;stop-color:black">
      <path
         d="m 15.834577,-1.9334883 q 0,0.4233214 -0.141107,0.8792059 -0.130252,0.4450302 -0.303923,0.8140796 -0.455884,1.05287623 -1.042022,2.0297717 -0.575282,0.9660411 -1.2374,1.9103734 -0.173671,0.2387967 -0.466739,0.5752829 -0.282215,0.3256318 -0.618701,0.7055356 -0.336486,0.3799038 -0.683827,0.7923708 -0.34734,0.412467 -0.651263,0.8249339 -0.303923,0.4016126 -0.531866,0.7815164 -0.2170876,0.3690494 -0.2930683,0.6729724 -0.075981,0.2713599 -0.075981,0.5644285 0,0.2930687 0,0.5427198 0,0.2605054 0.010854,0.7489532 0.021709,0.4775932 0.043418,1.0745852 0.032563,0.586137 0.086835,1.226546 0.054272,0.64041 0.119398,1.215692 0.07598,0.575283 0.173671,1.020314 0.108544,0.455884 0.238796,0.672972 0.02171,0.04342 0.04342,0.08684 0.02171,0.04342 0.02171,0.09769 0,0.07598 -0.05427,0.119398 -0.04342,0.04342 -0.108544,0.06513 -0.06513,0.02171 -0.130253,0.02171 -0.06513,0.01085 -0.108544,0.01085 -0.2387965,0 -0.4667388,-0.04342 Q 9.4413393,15.433542 9.2351058,15.368416 8.909474,15.259872 8.7249493,15.042784 8.5404246,14.825696 8.442735,14.543482 q -0.09769,-0.27136 -0.1193983,-0.586137 -0.021709,-0.303923 -0.021709,-0.596992 0,-0.553574 0.043418,-1.215692 Q 8.3884631,11.482543 8.4535894,10.80957 8.5295702,10.125744 8.6272597,9.4636256 8.7249493,8.8015075 8.8334932,8.2262247 8.7466581,8.0308456 8.5078614,7.7269225 8.2799191,7.4121451 7.9868505,7.0865133 7.7046362,6.750027 7.4332764,6.446104 7.1619165,6.142181 7.009955,5.9576563 6.4889441,5.3281014 5.9570788,4.600857 5.4360679,3.8736126 5.0127465,3.0812418 4.5894251,2.2780166 4.3180653,1.4313739 4.0575598,0.58473116 4.0575598,-0.28362038 q 0,-0.64040925 0.2062335,-1.21569212 0.2170879,-0.5752829 0.6838268,-0.9877499 0.09769,-0.086835 0.2496511,-0.2062335 0.1519615,-0.1302527 0.3147774,-0.2387967 0.1736703,-0.1193983 0.3473406,-0.1953791 0.1736703,-0.086835 0.3147775,-0.086835 0.2170878,0 0.2170878,0.2387967 0,0.032563 0,0.075981 0,0.043418 -0.021709,0.086835 -0.1193984,0.5210109 -0.1845248,1.0311674 -0.065126,0.5101566 -0.065126,1.05287626 0,1.23740094 0.2822142,2.30113154 0.2822143,1.0637307 0.7489532,2.0514805 0.466739,0.9877499 1.0637307,1.9429366 0.5969916,0.9443323 1.2265465,1.9320821 0.4016126,-0.607846 0.8683517,-1.2916729 0.466739,-0.6838268 0.933478,-1.4110712 0.466739,-0.7272444 0.900914,-1.487052 0.445031,-0.770662 0.781517,-1.541324 0.336486,-0.78151636 0.531865,-1.55217835 0.206234,-0.78151638 0.206234,-1.54132395 0,-0.2822143 -0.04342,-0.5427197 -0.03256,-0.2605055 -0.119398,-0.5101566 v -0.086835 q 0,-0.1628159 0.130252,-0.2605055 0.141108,-0.097689 0.314778,-0.1519615 0.184525,-0.054272 0.369049,-0.075981 0.195379,-0.021709 0.303923,-0.021709 0.27136,0 0.488448,0.054272 0.227942,0.043418 0.390758,0.162816 0.162816,0.1193983 0.249651,0.3256318 0.08683,0.1953791 0.08683,0.4993021 z"
         style="vector-effect:none;stop-color:black;stop-opacity:1"
         id="path4143" />
    </g>
  </g>
</svg>
