<?xml version="1.0" encoding="UTF-8" standalone="no"?>
<!-- Created with Inkscape (http://www.inkscape.org/) -->

<svg
   xmlns:dc="http://purl.org/dc/elements/1.1/"
   xmlns:cc="http://creativecommons.org/ns#"
   xmlns:rdf="http://www.w3.org/1999/02/22-rdf-syntax-ns#"
   xmlns:svg="http://www.w3.org/2000/svg"
   xmlns="http://www.w3.org/2000/svg"
   xmlns:sodipodi="http://sodipodi.sourceforge.net/DTD/sodipodi-0.dtd"
   xmlns:inkscape="http://www.inkscape.org/namespaces/inkscape"
   width="46mm"
   height="15mm"
   viewBox="0 0 46 15"
   version="1.1"
   id="svg8"
   inkscape:version="0.92.3 (2405546, 2018-03-11)"
   sodipodi:docname="logotype.svg">
  <defs
     id="defs2" />
  <sodipodi:namedview
     id="base"
     pagecolor="#ffffff"
     bordercolor="#666666"
     borderopacity="1.0"
     inkscape:pageopacity="0.0"
     inkscape:pageshadow="2"
     inkscape:zoom="1.2014423"
     inkscape:cx="174.83222"
     inkscape:cy="-140.67164"
     inkscape:document-units="mm"
     inkscape:current-layer="layer1"
     showgrid="false"
     inkscape:snap-global="true"
     inkscape:window-width="2619"
     inkscape:window-height="2067"
     inkscape:window-x="1103"
     inkscape:window-y="49"
     inkscape:window-maximized="0" />
  <metadata
     id="metadata5">
    <rdf:RDF>
      <cc:Work
         rdf:about="">
        <dc:format>image/svg+xml</dc:format>
        <dc:type
           rdf:resource="http://purl.org/dc/dcmitype/StillImage" />
        <dc:title></dc:title>
      </cc:Work>
    </rdf:RDF>
  </metadata>
  <g
     inkscape:label="Layer 1"
     inkscape:groupmode="layer"
     id="layer1"
     transform="translate(0,-282)">
    <g
       aria-label="Yarrharr"
       style="font-size:10.58333302px;font-family:Purisa;-inkscape-font-specification:Purisa;letter-spacing:0px;word-spacing:0px;stroke-width:0.26458332px"
       id="text4524">
      <path
         d="m 10.62025,290.16858 q 0.0635,-0.0212 0.1905,-0.0212 0.359833,0 0.359833,0.46567 0,0.254 -0.116417,0.43392 -0.105833,0.16933 -0.338666,0.21166 -0.9630836,0.17992 -1.894417,0.40217 l -0.03175,0.254 Q 8.4929997,293.99975 7.6039998,294.99458 6.7255831,296 5.4026665,296 q -0.8784167,0 -1.36525,-0.43392 -0.47625,-0.42333 -0.47625,-1.09008 0,-1.11125 0.9948333,-1.97909 0.9948333,-0.86783 3.01625,-1.53458 l 0.2116666,-1.49225 q 0.042333,-0.254 0.1058333,-0.67733 -0.4974166,1.31233 -1.2699999,1.95791 -0.7725833,0.64559 -1.7250833,0.64559 -0.9101666,0 -1.3864166,-0.55034 -0.47625,-0.56091 -0.47625,-1.43933 0,-0.39158 0.084667,-0.85725 0.084667,-0.47625 0.2645833,-1.28058 0.15875,-0.73025 0.2328333,-1.16417 0.084667,-0.43392 0.084667,-0.77258 0,-0.508 -0.3915834,-0.508 -0.3069166,0 -0.7302499,0.30691 -0.41275,0.29634 -0.8784167,0.92075 -0.1481666,0.20109 -0.3280833,0.20109 -0.1481667,0 -0.2645833,-0.13759 -0.10583335,-0.14816 -0.10583335,-0.32808 0,-0.32808 0.29633335,-0.74083 1.0794999,-1.48167 2.5294166,-1.48167 0.6455833,0 1.0054166,0.39158 0.3704167,0.39159 0.3704167,1.15359 0,0.55033 -0.1058334,1.13241 -0.09525,0.5715 -0.2963333,1.4605 -0.127,0.52917 -0.1905,0.85725 -0.0635,0.3175 -0.0635,0.52917 0,0.53975 0.1905,0.77258 0.1905,0.23284 0.66675,0.23284 0.5715,0 1.1641666,-0.62442 0.60325,-0.635 1.0795,-1.91558 0.4868333,-1.28059 0.6985,-3.13267 0.052917,-0.46567 0.2434166,-0.65617 0.1905,-0.20108 0.5503333,-0.20108 0.7408333,0 0.7408333,0.74083 0,0.127 -0.010583,0.20109 -0.22225,1.57691 -0.41275,2.84691 -0.1058333,0.762 -0.2328333,1.56634 -0.1164167,0.80433 -0.2328333,1.62983 0.7725833,-0.21167 1.6298336,-0.381 z m -3.2067502,1.905 q -2.5611666,0.889 -2.5611666,2.159 0,0.29633 0.1799166,0.48683 0.1905,0.20109 0.5291667,0.20109 1.4710833,0 1.8414999,-2.77284 z"
         style="-inkscape-font-specification:Pacifico"
         id="path4545" />
      <path
         d="m 11.72935,292.59216 q -0.656167,0 -1.04775,-0.47625 -0.391583,-0.47625 -0.391583,-1.24883 0,-0.84667 0.391583,-1.59808 0.391583,-0.762 1.037167,-1.21709 0.656166,-0.46566 1.386416,-0.46566 0.232833,0 0.306917,0.0953 0.08467,0.0847 0.137583,0.3175 0.22225,-0.0423 0.465667,-0.0423 0.518583,0 0.518583,0.37042 0,0.22225 -0.15875,1.05833 -0.243417,1.21709 -0.243417,1.69334 0,0.15875 0.07408,0.254 0.08467,0.0953 0.211666,0.0953 0.201084,0 0.486834,-0.254 0.28575,-0.26459 0.772583,-0.84667 0.127,-0.14817 0.28575,-0.14817 0.137583,0 0.211667,0.127 0.08467,0.127 0.08467,0.34925 0,0.42334 -0.201083,0.65617 -0.433917,0.53975 -0.92075,0.91017 -0.486833,0.37041 -0.941917,0.37041 -0.34925,0 -0.645583,-0.23283 -0.28575,-0.24342 -0.433917,-0.65617 -0.550333,0.889 -1.386416,0.889 z m 0.381,-1.06891 q 0.232833,0 0.4445,-0.27517 0.211666,-0.27517 0.306916,-0.73025 l 0.391584,-1.94733 q -0.4445,0.0106 -0.8255,0.33866 -0.370417,0.3175 -0.592667,0.84667 -0.22225,0.52917 -0.22225,1.12183 0,0.32809 0.127,0.48684 0.137583,0.15875 0.370417,0.15875 z"
         style="-inkscape-font-specification:Pacifico"
         id="path4547" />
      <path
         d="m 16.160625,292.59216 q -0.402167,0 -0.5715,-0.42333 -0.15875,-0.42333 -0.15875,-1.35467 0,-1.37583 0.391583,-2.61408 0.09525,-0.30692 0.306917,-0.4445 0.22225,-0.14817 0.613833,-0.14817 0.211667,0 0.296334,0.0529 0.08467,0.0529 0.08467,0.20108 0,0.16934 -0.15875,0.762 -0.105833,0.42334 -0.169333,0.74084 -0.0635,0.3175 -0.105833,0.78316 0.34925,-0.91016 0.783166,-1.48166 0.433917,-0.5715 0.846667,-0.81492 0.423333,-0.24342 0.772583,-0.24342 0.687917,0 0.687917,0.68792 0,0.13758 -0.09525,0.66675 -0.08467,0.42333 -0.08467,0.52917 0,0.37041 0.264583,0.37041 0.296334,0 0.762,-0.46566 0.137584,-0.13759 0.28575,-0.13759 0.137584,0 0.211667,0.127 0.08467,0.11642 0.08467,0.3175 0,0.39159 -0.211667,0.61384 -0.296333,0.30691 -0.6985,0.52916 -0.391583,0.21167 -0.836083,0.21167 -0.560917,0 -0.85725,-0.28575 -0.28575,-0.28575 -0.28575,-0.77258 0,-0.15875 0.03175,-0.3175 0.02117,-0.21167 0.02117,-0.28575 0,-0.16934 -0.116417,-0.16934 -0.15875,0 -0.423333,0.35984 -0.254,0.34925 -0.508,0.93133 -0.254,0.58208 -0.41275,1.22767 -0.116417,0.49741 -0.275167,0.67733 -0.148167,0.16933 -0.47625,0.16933 z"
         style="-inkscape-font-specification:Pacifico"
         id="path4549" />
      <path
         d="m 20.976867,292.59216 q -0.402167,0 -0.5715,-0.42333 -0.15875,-0.42333 -0.15875,-1.35467 0,-1.37583 0.391583,-2.61408 0.09525,-0.30692 0.306917,-0.4445 0.22225,-0.14817 0.613833,-0.14817 0.211667,0 0.296334,0.0529 0.08467,0.0529 0.08467,0.20108 0,0.16934 -0.15875,0.762 -0.105833,0.42334 -0.169333,0.74084 -0.0635,0.3175 -0.105833,0.78316 0.34925,-0.91016 0.783166,-1.48166 0.433917,-0.5715 0.846667,-0.81492 0.423333,-0.24342 0.772583,-0.24342 0.687917,0 0.687917,0.68792 0,0.13758 -0.09525,0.66675 -0.08467,0.42333 -0.08467,0.52917 0,0.37041 0.264584,0.37041 0.296333,0 0.762,-0.46566 0.137583,-0.13759 0.28575,-0.13759 0.137583,0 0.211666,0.127 0.08467,0.11642 0.08467,0.3175 0,0.39159 -0.211667,0.61384 -0.296333,0.30691 -0.6985,0.52916 -0.391583,0.21167 -0.836083,0.21167 -0.560917,0 -0.85725,-0.28575 -0.28575,-0.28575 -0.28575,-0.77258 0,-0.15875 0.03175,-0.3175 0.02117,-0.21167 0.02117,-0.28575 0,-0.16934 -0.116417,-0.16934 -0.15875,0 -0.423333,0.35984 -0.254,0.34925 -0.508,0.93133 -0.254,0.58208 -0.41275,1.22767 -0.116417,0.49741 -0.275167,0.67733 -0.148167,0.16933 -0.47625,0.16933 z"
         style="-inkscape-font-specification:Pacifico"
         id="path4551" />
      <path
         d="m 30.915444,290.17916 q 0.137584,0 0.211667,0.127 0.08467,0.127 0.08467,0.34925 0,0.42334 -0.201084,0.65617 -0.486833,0.56092 -1.005416,0.92075 -0.508,0.35983 -1.164167,0.35983 -0.53975,0 -0.814916,-0.30691 -0.275167,-0.3175 -0.275167,-0.91017 0,-0.29633 0.148167,-1.05833 0.137583,-0.66675 0.137583,-0.92075 0,-0.16934 -0.116417,-0.16934 -0.137583,0 -0.391583,0.35984 -0.254,0.34925 -0.508,0.93133 -0.254,0.58208 -0.41275,1.22767 -0.201083,0.84666 -0.994833,0.84666 -0.3175,0 -0.423334,-0.22225 -0.09525,-0.23283 -0.09525,-0.8255 0,-0.33866 0.01058,-0.53975 l 0.01058,-0.84666 q 0,-1.62984 0.328083,-3.39725 0.338667,-1.76742 0.98425,-2.96334 0.656167,-1.2065 1.566334,-1.2065 0.486833,0 0.783166,0.42334 0.306917,0.41275 0.306917,1.0795 0,1.06891 -0.624417,2.2225 -0.624416,1.143 -2.032,2.67758 -0.03175,0.55033 -0.03175,1.13242 0.34925,-0.89959 0.772584,-1.4605 0.433916,-0.5715 0.846666,-0.81492 0.423334,-0.24342 0.772583,-0.24342 0.687917,0 0.687917,0.68792 0,0.41275 -0.232833,1.49225 -0.201084,0.92075 -0.201084,1.21708 0,0.42334 0.306917,0.42334 0.211667,0 0.497417,-0.254 0.296333,-0.26459 0.783166,-0.84667 0.127,-0.14817 0.28575,-0.14817 z m -3.143249,-6.5405 q -0.1905,0 -0.423334,0.55034 -0.232833,0.53975 -0.455083,1.47108 -0.211667,0.92075 -0.34925,2.01083 0.656167,-0.77258 1.0795,-1.68275 0.433917,-0.91016 0.433917,-1.651 0,-0.33866 -0.07408,-0.51858 -0.07408,-0.17992 -0.211666,-0.17992 z"
         style="-inkscape-font-specification:Pacifico"
         id="path4553" />
      <path
         d="m 31.655781,292.59216 q -0.656167,0 -1.04775,-0.47625 -0.391584,-0.47625 -0.391584,-1.24883 0,-0.84667 0.391584,-1.59808 0.391583,-0.762 1.037166,-1.21709 0.656167,-0.46566 1.386417,-0.46566 0.232833,0 0.306916,0.0953 0.08467,0.0847 0.137584,0.3175 0.22225,-0.0423 0.465666,-0.0423 0.518584,0 0.518584,0.37042 0,0.22225 -0.15875,1.05833 -0.243417,1.21709 -0.243417,1.69334 0,0.15875 0.07408,0.254 0.08467,0.0953 0.211667,0.0953 0.201083,0 0.486833,-0.254 0.28575,-0.26459 0.772584,-0.84667 0.127,-0.14817 0.28575,-0.14817 0.137583,0 0.211666,0.127 0.08467,0.127 0.08467,0.34925 0,0.42334 -0.201083,0.65617 -0.433917,0.53975 -0.92075,0.91017 -0.486834,0.37041 -0.941917,0.37041 -0.34925,0 -0.645583,-0.23283 -0.28575,-0.24342 -0.433917,-0.65617 -0.550333,0.889 -1.386416,0.889 z m 0.381,-1.06891 q 0.232833,0 0.4445,-0.27517 0.211666,-0.27517 0.306916,-0.73025 l 0.391583,-1.94733 q -0.444499,0.0106 -0.825499,0.33866 -0.370417,0.3175 -0.592667,0.84667 -0.22225,0.52917 -0.22225,1.12183 0,0.32809 0.127,0.48684 0.137583,0.15875 0.370417,0.15875 z"
         style="-inkscape-font-specification:Pacifico"
         id="path4555" />
      <path
         d="m 36.087055,292.59216 q -0.402167,0 -0.5715,-0.42333 -0.15875,-0.42333 -0.15875,-1.35467 0,-1.37583 0.391583,-2.61408 0.09525,-0.30692 0.306917,-0.4445 0.22225,-0.14817 0.613833,-0.14817 0.211667,0 0.296333,0.0529 0.08467,0.0529 0.08467,0.20108 0,0.16934 -0.15875,0.762 -0.105833,0.42334 -0.169333,0.74084 -0.0635,0.3175 -0.105834,0.78316 0.34925,-0.91016 0.783167,-1.48166 0.433917,-0.5715 0.846667,-0.81492 0.423333,-0.24342 0.772583,-0.24342 0.687917,0 0.687917,0.68792 0,0.13758 -0.09525,0.66675 -0.08467,0.42333 -0.08467,0.52917 0,0.37041 0.264583,0.37041 0.296334,0 0.762,-0.46566 0.137584,-0.13759 0.28575,-0.13759 0.137584,0 0.211667,0.127 0.08467,0.11642 0.08467,0.3175 0,0.39159 -0.211667,0.61384 -0.296333,0.30691 -0.6985,0.52916 -0.391583,0.21167 -0.836083,0.21167 -0.560917,0 -0.85725,-0.28575 -0.28575,-0.28575 -0.28575,-0.77258 0,-0.15875 0.03175,-0.3175 0.02117,-0.21167 0.02117,-0.28575 0,-0.16934 -0.116416,-0.16934 -0.15875,0 -0.423334,0.35984 -0.254,0.34925 -0.508,0.93133 -0.254,0.58208 -0.41275,1.22767 -0.116416,0.49741 -0.275166,0.67733 -0.148167,0.16933 -0.47625,0.16933 z"
         style="-inkscape-font-specification:Pacifico"
         id="path4557" />
      <path
         d="m 44.427551,289.05733 q 0.232833,0 0.391583,0.16933 0.169333,0.15875 0.169333,0.40217 0,0.13758 -0.0635,0.29633 -0.169333,0.39159 -0.47625,0.65617 -0.306916,0.26458 -0.677333,0.26458 -0.296333,0 -0.508,-0.21166 -0.201083,-0.21167 -0.201083,-0.5715 0,-0.20109 0.02117,-0.43392 0.02117,-0.16933 0.02117,-0.23283 0,-0.0847 -0.04233,-0.127 -0.03175,-0.0423 -0.08467,-0.0423 -0.148167,0 -0.402167,0.35984 -0.254,0.34925 -0.508,0.93133 -0.254,0.58208 -0.41275,1.22767 -0.116416,0.508 -0.264583,0.67733 -0.148167,0.16933 -0.486833,0.16933 -0.402167,0 -0.5715,-0.42333 -0.15875,-0.42333 -0.15875,-1.35467 0,-1.37583 0.391583,-2.61408 0.09525,-0.30692 0.306917,-0.4445 0.22225,-0.14817 0.613833,-0.14817 0.211667,0 0.296333,0.0529 0.08467,0.0529 0.08467,0.20108 0,0.16934 -0.15875,0.762 -0.105833,0.42334 -0.169333,0.74084 -0.0635,0.3175 -0.105834,0.78316 0.34925,-0.91016 0.783167,-1.48166 0.433917,-0.5715 0.846667,-0.81492 0.41275,-0.24342 0.751416,-0.24342 0.306917,0 0.465667,0.17992 0.169333,0.16933 0.169333,0.508 0,0.20108 -0.116416,0.762 z"
         style="-inkscape-font-specification:Pacifico"
         id="path4559" />
    </g>
  </g>
</svg>
